<svg xmlns="http://www.w3.org/2000/svg" viewBox="0 0 64.02 20"><g fill="currentColor"><path d="M13.22,17.18a2.67,2.67,0,1,1-2.63-2.66,2.66,2.66,0,0,1,2.63,2.66"></path><path d="M10.56,7.38A2.66,2.66,0,1,1,7.89,10a2.66,2.66,0,0,1,2.67-2.64"></path><path d="M5.59,17.17A2.67,2.67,0,1,1,3,14.52a2.66,2.66,0,0,1,2.63,2.65"></path><path d="M10.54,5.56A2.66,2.66,0,1,1,13.22,2.9a2.66,2.66,0,0,1-2.68,2.66"></path><path d="M5.59,10A2.67,2.67,0,1,1,3,7.38,2.65,2.65,0,0,1,5.59,10"></path><path d="M2.92,5.56A2.66,2.66,0,1,1,5.59,3,2.65,2.65,0,0,1,2.92,5.56"></path><path d="M18.19,7.38A2.66,2.66,0,1,1,15.52,10a2.64,2.64,0,0,1,2.67-2.66"></path><path d="M18.19,5.56a2.66,2.66,0,1,1,0-5.32A2.63,2.63,0,0,1,20.84,2.9a2.64,2.64,0,0,1-2.65,2.66"></path><path d="M15.52,17.18a2.66,2.66,0,1,1,2.57,2.66,2.65,2.65,0,0,1-2.57-2.66"></path><path d="M28.66.17H22.93V11.88h3V3.17h2.73A2.87,2.87,0,0,1,31.49,6v5.85h3V6A5.86,5.86,0,0,0,28.66.17"></path><path d="M45.45.17H39.73V11.88h3V3.17h2.73A2.87,2.87,0,0,1,48.28,6v5.85h3V6A5.85,5.85,0,0,0,45.45.17"></path><rect x="35.57" y="0.21" width="3" height="11.67"></rect><path d="M63.89,5.83A5.64,5.64,0,0,0,58.06,0a5.79,5.79,0,0,0-6.14,6V6.1c0,3.6,2.52,5.94,6.21,5.94A6.41,6.41,0,0,0,63,9.94L61.06,8.06a3.7,3.7,0,0,1-2.77,1.11c-1.78,0-2.95-.89-3-2.25h8.58c0-.53,0-1.09,0-1.09M55.32,4.71c.09-1.07,1.28-1.91,2.74-1.91a2.25,2.25,0,0,1,2.46,1.91Z"></path><g><path d="M23.7,17.72a1,1,0,1,0,1,1,1,1,0,0,0-1-1"></path><path d="M28.15,14.92a1.48,1.48,0,0,1,1.33.78l.14.21L31.21,15l-.16-.24a3.34,3.34,0,0,0-2.9-1.56,3.47,3.47,0,0,0-2.62,1.07,3.41,3.41,0,0,0,0,4.7A3.54,3.54,0,0,0,28.15,20a3.43,3.43,0,0,0,2.9-1.57l.15-.23-1.58-.94-.14.22a1.52,1.52,0,0,1-1.33.78,1.67,1.67,0,1,1,0-3.34"></path><path d="M34.78,13.17a3.51,3.51,0,0,0-2.62,1.06,3.42,3.42,0,0,0,0,4.71A3.58,3.58,0,0,0,34.78,20a3.51,3.51,0,0,0,2.62-1.06,3.42,3.42,0,0,0,0-4.71,3.58,3.58,0,0,0-2.62-1.06m0,5.09a1.68,1.68,0,1,1,1.67-1.68,1.64,1.64,0,0,1-1.67,1.68"></path><path d="M49.44,18a1,1,0,0,0-1,1,1,1,0,1,0,1-1"></path><path d="M55.27,13.69a2.71,2.71,0,0,0-1.65-.52,3.47,3.47,0,0,0-3.43,3.41,3.51,3.51,0,0,0,.88,2.33A3.28,3.28,0,0,0,53.55,20a2.85,2.85,0,0,0,1.72-.55v.39h1.82V13.33H55.27Zm-1.55,4.57a1.68,1.68,0,1,1,1.6-1.68,1.66,1.66,0,0,1-1.6,1.68"></path><path d="M61.87,13.33v3.61a1.18,1.18,0,1,1-2.36,0V13.33H57.69v3.72a2.9,2.9,0,0,0,.92,2.17,3.1,3.1,0,0,0,2.08.78,3.06,3.06,0,0,0,2.07-.78,2.86,2.86,0,0,0,.92-2.17V13.33Z"></path><path d="M47.35,13.88a2.56,2.56,0,0,0-1.84-.71,2.29,2.29,0,0,0-1.75.8,2,2,0,0,0-1.71-.8,2.64,2.64,0,0,0-1.47.52v-.36H38.76v6.51h1.82v-4a.94.94,0,0,1,1-.85.93.93,0,0,1,1,1v3.82h1.81V16a.9.9,0,0,1,1-1,1,1,0,0,1,1,.86v4h1.81v-4a2.71,2.71,0,0,0-.73-1.95"></path></g></g></svg>